<svg width="33" height="32" viewBox="0 0 33 32" fill="none" xmlns="http://www.w3.org/2000/svg">
<path d="M22.9803 15.4162C23.4437 15.4162 23.8322 15.2594 24.1457 14.9459C24.4592 14.6324 24.616 14.2439 24.616 13.7805C24.616 13.317 24.4592 12.9286 24.1457 12.6151C23.8322 12.3016 23.4437 12.1448 22.9803 12.1448C22.5168 12.1448 22.1284 12.3016 21.8149 12.6151C21.5014 12.9286 21.3446 13.317 21.3446 13.7805C21.3446 14.2439 21.5014 14.6324 21.8149 14.9459C22.1284 15.2594 22.5168 15.4162 22.9803 15.4162ZM9.89487 12.1448H18.0733V8.87345H9.89487V12.1448ZM4.17 31.7729C3.24312 28.6651 2.32987 25.5642 1.43024 22.47C0.530622 19.3759 0.0808105 16.2067 0.0808105 12.9626C0.0808105 10.4546 0.953172 8.32823 2.69789 6.58351C4.44262 4.83878 6.569 3.96642 9.07703 3.96642H17.2554C18.046 2.93049 19.007 2.12629 20.1383 1.5538C21.2696 0.981312 22.4896 0.695068 23.7981 0.695068C24.4797 0.695068 25.059 0.933605 25.536 1.41068C26.0131 1.88775 26.2516 2.46705 26.2516 3.14858C26.2516 3.31215 26.2312 3.47572 26.1903 3.63929C26.1494 3.80285 26.1017 3.95279 26.0472 4.0891C25.9381 4.38897 25.8359 4.69566 25.7405 5.00917C25.6451 5.32267 25.5701 5.64299 25.5156 5.97013L29.2368 9.69129H32.7944V21.1001L28.1736 22.6131L25.4338 31.7729H16.4376V28.5016H13.1662V31.7729H4.17ZM6.62352 28.5016H9.89487V25.2302H19.7089V28.5016H22.9803L25.5156 20.0778L29.523 18.7284V12.9626H27.8873L22.1625 7.23778C22.1625 6.69255 22.1965 6.16777 22.2647 5.66344C22.3328 5.1591 22.4351 4.64795 22.5714 4.12999C21.7808 4.34808 21.0856 4.72292 20.4859 5.25452C19.8861 5.78611 19.45 6.4472 19.1773 7.23778H9.07703C7.49588 7.23778 6.14645 7.79663 5.02873 8.91435C3.91102 10.0321 3.35216 11.3815 3.35216 12.9626C3.35216 15.6343 3.72019 18.2445 4.45625 20.7935C5.1923 23.3424 5.91473 25.9118 6.62352 28.5016Z" fill="#4B4BB2"/>
</svg>
