<svg width="33" height="40" viewBox="0 0 33 40" fill="none" xmlns="http://www.w3.org/2000/svg">
<path d="M13.4003 0.423571C14.6302 1.07203 15.8522 1.85288 16.4169 3.167C16.8757 5.02192 16.7323 6.38173 15.8539 8.09081C15.183 8.8767 15.183 8.8767 14.6271 9.31757C16.0749 8.84444 17.5151 8.37359 18.9207 7.78412C18.8448 7.4805 18.8448 7.4805 18.7674 7.17074C18.4328 5.16289 18.3919 3.69008 19.5341 1.95702C21.1218 0.524235 22.1083 0.316894 24.2063 0.336117C25.6824 0.488312 26.5007 1.20199 27.4505 2.28288C28.2147 3.52966 28.2754 4.82616 28.1214 6.25067C27.9318 6.76751 27.7301 7.28036 27.5081 7.78412C27.7117 7.89205 27.9153 7.99998 28.125 8.11117C30.2141 9.27923 31.5034 10.3209 32.4293 12.5404C32.8063 13.9208 32.7982 15.185 32.7817 16.6086C32.7808 16.8919 32.7799 17.1752 32.779 17.4671C32.7756 18.367 32.7679 19.2668 32.7601 20.1667C32.757 20.7789 32.7542 21.3911 32.7517 22.0033C32.745 23.4996 32.7344 24.9959 32.7218 26.4922C32.1145 26.7958 32.1145 26.7958 31.495 27.1056C31.4966 27.4756 31.4982 27.8456 31.4999 28.2268C31.5054 29.5945 31.5089 30.9623 31.5119 32.33C31.5134 32.9229 31.5155 33.5158 31.5182 34.1087C31.5219 34.959 31.5236 35.8093 31.525 36.6597C31.5266 36.9264 31.5281 37.1932 31.5298 37.468C31.5298 38.1032 31.5141 38.7383 31.495 39.3731C30.9466 39.9216 30.2082 39.7192 29.4781 39.7224C29.2391 39.7218 29.0002 39.7212 28.754 39.7206C28.3881 39.721 28.3881 39.721 28.0149 39.7214C27.4982 39.7217 26.9816 39.7211 26.4649 39.7198C25.6713 39.7182 24.8777 39.7198 24.0842 39.7218C23.5834 39.7216 23.0826 39.7212 22.5819 39.7206C22.3429 39.7212 22.1039 39.7218 21.8577 39.7224C20.1828 39.7151 20.1828 39.7151 19.8408 39.3731C19.8136 38.4662 19.8055 37.5665 19.8109 36.6597C19.8113 36.3878 19.8117 36.1159 19.8122 35.8358C19.8139 34.9639 19.8178 34.0921 19.8216 33.2202C19.8232 32.6306 19.8246 32.0409 19.8258 31.4513C19.8292 30.0027 19.8345 28.5541 19.8408 27.1056C19.436 26.9031 19.0312 26.7007 18.6141 26.4922C18.6141 24.8729 18.6141 23.2535 18.6141 21.5851C18.1333 21.4397 17.6526 21.2942 17.1573 21.1443C16.8869 21.0624 16.6165 20.9806 16.3378 20.8963C15.668 20.7004 14.9979 20.5252 14.3204 20.3584C14.322 20.7454 14.3236 21.1324 14.3253 21.5311C14.3308 22.9634 14.3343 24.3957 14.3373 25.828C14.3388 26.4486 14.3409 27.0692 14.3435 27.6897C14.3473 28.5804 14.349 29.4711 14.3504 30.3617C14.3519 30.6403 14.3535 30.9189 14.3552 31.2059C14.3552 31.4638 14.3552 31.7216 14.3552 31.9873C14.3559 32.2147 14.3566 32.4422 14.3573 32.6766C14.3204 33.2393 14.3204 33.2393 14.0137 33.8527C13.7101 33.8527 13.4065 33.8527 13.0936 33.8527C13.0379 34.4066 13.0379 34.4066 12.981 34.9717C12.9293 35.4549 12.8773 35.9381 12.8253 36.4212C12.8012 36.6648 12.7771 36.9083 12.7522 37.1592C12.5498 38.997 12.5498 38.997 11.8669 39.6798C11.2439 39.7592 11.2439 39.7592 10.4868 39.7613C10.2148 39.7621 9.9428 39.7629 9.66256 39.7637C9.37792 39.7613 9.09327 39.7589 8.8 39.7565C8.51535 39.7589 8.23071 39.7612 7.93743 39.7637C7.52944 39.7625 7.52944 39.7625 7.11321 39.7613C6.86335 39.7606 6.61349 39.7599 6.35607 39.7592C5.7331 39.6798 5.7331 39.6798 5.11972 39.0664C4.97639 38.1799 4.86303 37.3132 4.7747 36.4212C4.74821 36.1753 4.72172 35.9294 4.69443 35.6761C4.62934 35.0686 4.56753 34.4607 4.50635 33.8527C3.19065 33.8527 1.87495 33.8527 0.519382 33.8527C0.115221 33.0444 0.169269 32.4345 0.163275 31.5292C0.160329 31.1707 0.157382 30.8123 0.154346 30.4429C0.153043 30.0532 0.15174 29.6635 0.150397 29.262C0.148649 28.8617 0.1469 28.4614 0.145099 28.0489C0.141874 27.1992 0.140084 26.3494 0.139016 25.4996C0.137344 24.4183 0.129998 23.3371 0.121236 22.2558C0.114093 21.2176 0.113542 20.1794 0.112061 19.1412C0.108274 18.7565 0.104487 18.3717 0.100586 17.9753C0.109157 14.5652 0.614533 11.8734 2.9729 9.31757C5.49184 6.86405 5.49184 6.86405 7.26655 6.86405C7.25054 6.52544 7.25054 6.52544 7.2342 6.17999C7.14978 3.13686 7.14978 3.13686 8.18662 1.95702C9.9123 0.441782 11.1292 0.165412 13.4003 0.423571ZM21.3743 4.10385C21.1873 5.22588 21.2377 5.73087 21.8535 6.69154C22.6091 7.2733 22.6091 7.2733 23.7128 7.15157C24.8261 6.9637 24.8261 6.9637 25.3612 5.94398C25.5043 4.82327 25.5054 4.3067 24.8437 3.37546C24.1695 2.83049 24.1695 2.83049 23.3677 2.72374C22.3342 2.93046 21.9825 3.24781 21.3743 4.10385ZM10.0268 3.79716C9.64238 4.67211 9.64238 4.67211 9.72006 5.63729C10.1521 6.55434 10.1521 6.55434 10.9468 7.17074C12.0748 7.38224 12.5677 7.31129 13.5345 6.69154C14.1094 5.93863 14.1094 5.93863 14.0329 4.8514C13.804 3.75953 13.804 3.75953 12.9595 3.20294C11.6707 2.66856 11.119 2.95694 10.0268 3.79716ZM5.11972 10.851C3.70922 12.5131 2.93306 13.9884 2.93808 16.1842C2.9381 16.5218 2.93813 16.8594 2.93815 17.2073C2.93973 17.5715 2.94132 17.9357 2.94295 18.311C2.94338 18.6841 2.94382 19.0572 2.94426 19.4416C2.94598 20.6353 2.94983 21.829 2.95373 23.0228C2.95527 23.8312 2.95667 24.6397 2.95792 25.4481C2.96105 27.4318 2.96705 29.4155 2.9729 31.3992C5.90792 31.3992 8.84293 31.3992 11.8669 31.3992C11.945 29.6795 12.0119 27.966 12.0522 26.2459C12.069 25.6631 12.0919 25.0804 12.1214 24.498C12.3637 20.4964 12.3637 20.4964 10.6749 16.9975C9.98253 16.2352 9.24887 15.5379 8.49331 14.838C7.83333 13.848 7.81833 13.5241 7.87993 12.3845C8.38597 12.2833 8.892 12.182 9.41338 12.0778C9.63912 12.3478 9.86486 12.6178 10.0974 12.896C10.3997 13.2558 10.702 13.6156 11.0043 13.9754C11.1524 14.1527 11.3004 14.33 11.453 14.5127C13.1112 16.4825 14.1905 17.7299 16.7739 18.2116C16.9763 17.7055 17.1788 17.1995 17.3873 16.6781C16.9919 16.4722 16.5956 16.268 16.1989 16.0647C15.9783 15.9509 15.7577 15.837 15.5304 15.7197C14.9496 15.4094 14.9496 15.4094 14.3204 15.4514C14.2358 15.1869 14.1512 14.9224 14.064 14.6499C13.1436 11.7444 13.1436 11.7444 11.2439 9.48888C8.73052 8.51822 7.11803 9.30272 5.11972 10.851ZM15.8539 12.0778C15.9311 12.672 15.9311 12.672 16.1605 13.3045C16.9339 13.8037 17.6573 14.2096 18.4799 14.608C18.692 14.7194 18.9041 14.8309 19.1226 14.9458C20.6641 15.7101 21.8054 15.8738 23.5211 15.758C23.6756 15.3112 23.8286 14.8638 23.9811 14.4163C24.0665 14.1672 24.1519 13.9181 24.2399 13.6615C24.4708 13.0156 24.4708 13.0156 24.4412 12.3845C25.0544 12.3714 25.668 12.3719 26.2813 12.3845C26.4331 12.5363 26.4331 12.5363 26.588 12.6912C26.4688 14.026 26.2578 15.3046 25.9614 16.611C25.9064 16.8548 25.8514 17.0985 25.7947 17.3496C25.7319 17.6245 25.7319 17.6245 25.6679 17.9049C25.4837 17.9202 25.2995 17.9356 25.1097 17.9514C24.2796 18.0224 23.4499 18.0977 22.6202 18.1732C22.1852 18.2094 22.1852 18.2094 21.7415 18.2463C21.3278 18.2848 21.3278 18.2848 20.9058 18.3242C20.6505 18.3467 20.3951 18.3691 20.132 18.3923C19.9347 18.4339 19.7374 18.4754 19.5341 18.5183C19.4329 18.7207 19.3317 18.9231 19.2274 19.1316C20.6595 19.5382 22.0607 19.5184 23.5403 19.5342C23.8196 19.5431 24.0989 19.552 24.3866 19.5611C25.8895 19.616 25.8895 19.616 27.1858 18.9819C27.6495 17.8735 28.0202 16.7592 28.3514 15.6047C28.423 15.3718 28.4946 15.139 28.5683 14.8991C28.6343 14.6733 28.7003 14.4476 28.7684 14.215C28.8283 14.0108 28.8883 13.8066 28.9502 13.5962C29.0587 12.8851 28.986 12.4435 28.7348 11.7711C27.1973 10.3954 25.5264 10.171 23.5211 9.93094C23.3037 9.89418 23.0862 9.85741 22.8622 9.81953C20.3709 9.57613 18.0343 11.029 15.8539 12.0778ZM29.6549 19.4383C29.5347 19.6724 29.4145 19.9064 29.2907 20.1475C28.5824 21.1977 28.0764 21.4346 26.8947 21.8918C25.9322 21.9967 24.9861 21.9794 24.0195 21.9493C23.637 21.9431 23.637 21.9431 23.2467 21.9368C22.6225 21.926 21.9984 21.9095 21.3743 21.8918C21.3743 22.7015 21.3743 23.5112 21.3743 24.3454C24.2081 24.3454 27.0419 24.3454 29.9616 24.3454C29.9616 22.726 29.9616 21.1067 29.9616 19.4383C29.8604 19.4383 29.7592 19.4383 29.6549 19.4383ZM22.2943 27.1056C22.2943 30.4454 22.2943 33.7853 22.2943 37.2263C23.0028 37.2263 23.7112 37.2263 24.4412 37.2263C24.5424 34.6961 24.6436 32.1659 24.7478 29.5591C25.3551 29.5591 25.9623 29.5591 26.588 29.5591C26.6892 32.0893 26.7904 34.6195 26.8947 37.2263C27.6031 37.2263 28.3116 37.2263 29.0415 37.2263C29.0415 33.8865 29.0415 30.5466 29.0415 27.1056C26.8149 27.1056 24.5884 27.1056 22.2943 27.1056ZM7.26655 33.8527C7.36776 34.966 7.46896 36.0793 7.57324 37.2263C8.3829 37.2263 9.19256 37.2263 10.0268 37.2263C10.128 36.113 10.2292 34.9997 10.3334 33.8527C9.32137 33.8527 8.30929 33.8527 7.26655 33.8527Z" fill="#4B4BB2"/>
</svg>
