<svg width="27" height="24" viewBox="0 0 27 24" fill="none" xmlns="http://www.w3.org/2000/svg">
<path d="M1.6924 0.00065114C1.35731 0.000729386 1.02986 0.0896601 0.751907 0.256074C0.473957 0.422488 0.25814 0.658823 0.132047 0.934865C0.00595413 1.21091 -0.0246847 1.51411 0.0440476 1.80572C0.11278 2.09732 0.27776 2.36408 0.517896 2.57188L11.1181 11.9968L0.517896 21.4217C0.356234 21.5597 0.227166 21.725 0.138253 21.9079C0.0493391 22.0908 0.0023672 22.2877 8.71895e-05 22.4869C-0.00219283 22.6862 0.0402653 22.8838 0.124975 23.0683C0.209684 23.2528 0.334942 23.4204 0.493413 23.5613C0.651884 23.7022 0.840382 23.8136 1.04787 23.8889C1.25535 23.9642 1.47766 24.0019 1.70176 23.9999C1.92586 23.9979 2.14725 23.9561 2.35297 23.8771C2.55869 23.798 2.7446 23.6833 2.89981 23.5395L13.5 14.1146L24.1002 23.5395C24.2554 23.6833 24.4413 23.798 24.647 23.8771C24.8527 23.9561 25.0741 23.9979 25.2982 23.9999C25.5223 24.002 25.7446 23.9642 25.9521 23.8889C26.1596 23.8136 26.3481 23.7022 26.5066 23.5613C26.6651 23.4204 26.7903 23.2528 26.875 23.0683C26.9597 22.8838 27.0022 22.6862 26.9999 22.4869C26.9976 22.2877 26.9507 22.0908 26.8617 21.9079C26.7728 21.725 26.6438 21.5597 26.4821 21.4217L15.8819 11.9968L26.4821 2.57188C26.7255 2.36151 26.8918 2.09067 26.9591 1.79484C27.0264 1.49902 26.9916 1.19202 26.8593 0.914068C26.727 0.636118 26.5034 0.400188 26.2177 0.237196C25.932 0.074204 25.5975 -0.00824567 25.2582 0.00065114C24.8206 0.012245 24.4053 0.174863 24.1002 0.454053L13.5 9.87896L2.89981 0.454053C2.74284 0.310583 2.55512 0.196541 2.34773 0.118666C2.14035 0.0407915 1.91752 0.000662808 1.6924 0.00065114Z" fill="#4B4BB2"/>
</svg>
