<svg width="29" height="22" viewBox="0 0 29 22" fill="none" xmlns="http://www.w3.org/2000/svg">
<path d="M1.42805 0.000155438C1.24147 -0.00275733 1.05623 0.0352931 0.883094 0.112095C0.709955 0.188897 0.55237 0.302919 0.419498 0.447534C0.286626 0.59215 0.181117 0.764475 0.109101 0.954495C0.0370854 1.14452 0 1.34844 0 1.55442C0 1.7604 0.0370854 1.96432 0.109101 2.15434C0.181117 2.34436 0.286626 2.51669 0.419498 2.6613C0.55237 2.80592 0.709955 2.91994 0.883094 2.99674C1.05623 3.07354 1.24147 3.11159 1.42805 3.10868H26.772C26.9585 3.11159 27.1438 3.07354 27.3169 2.99674C27.49 2.91994 27.6476 2.80592 27.7805 2.6613C27.9134 2.51669 28.0189 2.34436 28.0909 2.15434C28.1629 1.96432 28.2 1.7604 28.2 1.55442C28.2 1.34844 28.1629 1.14452 28.0909 0.954495C28.0189 0.764475 27.9134 0.59215 27.7805 0.447534C27.6476 0.302919 27.49 0.188897 27.3169 0.112095C27.1438 0.0352931 26.9585 -0.00275733 26.772 0.000155438H1.42805ZM1.42805 9.32574C1.24147 9.32282 1.05623 9.36087 0.883094 9.43768C0.709955 9.51448 0.55237 9.6285 0.419498 9.77312C0.286626 9.91773 0.181117 10.0901 0.109101 10.2801C0.0370854 10.4701 0 10.674 0 10.88C0 11.086 0.0370854 11.2899 0.109101 11.4799C0.181117 11.6699 0.286626 11.8423 0.419498 11.9869C0.55237 12.1315 0.709955 12.2455 0.883094 12.3223C1.05623 12.3991 1.24147 12.4372 1.42805 12.4343H26.772C26.9585 12.4372 27.1438 12.3991 27.3169 12.3223C27.49 12.2455 27.6476 12.1315 27.7805 11.9869C27.9134 11.8423 28.0189 11.6699 28.0909 11.4799C28.1629 11.2899 28.2 11.086 28.2 10.88C28.2 10.674 28.1629 10.4701 28.0909 10.2801C28.0189 10.0901 27.9134 9.91773 27.7805 9.77312C27.6476 9.6285 27.49 9.51448 27.3169 9.43768C27.1438 9.36087 26.9585 9.32282 26.772 9.32574H1.42805ZM1.42805 18.6513C1.24147 18.6484 1.05623 18.6865 0.883094 18.7633C0.709955 18.8401 0.55237 18.9541 0.419498 19.0987C0.286626 19.2433 0.181117 19.4156 0.109101 19.6057C0.0370854 19.7957 0 19.9996 0 20.2056C0 20.4116 0.0370854 20.6155 0.109101 20.8055C0.181117 20.9955 0.286626 21.1679 0.419498 21.3125C0.55237 21.4571 0.709955 21.5711 0.883094 21.6479C1.05623 21.7247 1.24147 21.7628 1.42805 21.7598H26.772C26.9585 21.7628 27.1438 21.7247 27.3169 21.6479C27.49 21.5711 27.6476 21.4571 27.7805 21.3125C27.9134 21.1679 28.0189 20.9955 28.0909 20.8055C28.1629 20.6155 28.2 20.4116 28.2 20.2056C28.2 19.9996 28.1629 19.7957 28.0909 19.6057C28.0189 19.4156 27.9134 19.2433 27.7805 19.0987C27.6476 18.9541 27.49 18.8401 27.3169 18.7633C27.1438 18.6865 26.9585 18.6484 26.772 18.6513H1.42805Z" fill="#4B4BB2"/>
</svg>
