<svg width="1654" height="463" viewBox="0 0 1654 463" fill="none" xmlns="http://www.w3.org/2000/svg">
<g opacity="0.7">
<path d="M1.89217 1.83192C46.2155 47.7453 166.947 143.528 295.288 159.352C455.713 179.131 514.281 107.047 613.151 100.748C712.021 94.4494 803.746 239.416 994.513 387.722C1131.28 494.052 1233.24 472.056 1303.09 398.655C1431.58 263.626 1386.3 183.837 1652.68 74.4528" stroke="#02D866" stroke-opacity="0.01" stroke-width="4"/>
<path d="M1.89217 1.83192C46.2155 47.7453 166.947 143.528 295.288 159.352C455.713 179.131 514.281 107.047 613.151 100.748C712.021 94.4494 803.746 239.416 994.513 387.722C1131.28 494.052 1233.24 472.056 1303.09 398.655C1431.58 263.626 1386.3 183.837 1652.68 74.4528" stroke="black" stroke-opacity="0.04" stroke-width="4"/>
</g>
</svg>
