<svg width="38" height="37" viewBox="0 0 38 37" fill="none" xmlns="http://www.w3.org/2000/svg">
<path d="M29.9202 36.1111V32.1458H6.21195V18.0691C6.21195 14.2029 7.45414 10.9233 9.93851 8.23022C12.4229 5.53714 15.4483 4.1906 19.0148 4.1906C22.5814 4.1906 25.6068 5.53714 28.0912 8.23022C30.5755 10.9233 31.8177 14.2029 31.8177 18.0691V30.1632H33.6467C34.6527 30.1632 35.5138 29.7749 36.2302 28.9984C36.9465 28.2218 37.3047 27.2883 37.3047 26.1979V22.2326C37.3047 21.5387 37.1447 20.8861 36.8246 20.2748C36.5045 19.6634 36.0549 19.176 35.4757 18.8126L35.3385 16.1856C35.0947 13.9386 34.4926 11.8568 33.5324 9.94025C32.5722 8.0237 31.3681 6.35498 29.9202 4.93409C28.4722 3.5132 26.8109 2.40622 24.9362 1.61317C23.0615 0.820112 21.0877 0.423584 19.0148 0.423584C16.942 0.423584 14.9758 0.820112 13.1164 1.61317C11.2569 2.40622 9.59558 3.50494 8.13239 4.9093C6.6692 6.31367 5.46512 7.97413 4.52015 9.89068C3.57517 11.8072 2.96551 13.889 2.69116 16.136L2.55399 18.7134C1.97481 19.0108 1.52518 19.4569 1.20511 20.0517C0.88504 20.6465 0.725002 21.2743 0.725002 21.9352V26.4953C0.725002 27.1562 0.88504 27.784 1.20511 28.3788C1.52518 28.9736 1.97481 29.4197 2.55399 29.7171V32.1458C2.55399 33.2363 2.91217 34.1697 3.62852 34.9463C4.34487 35.7228 5.20601 36.1111 6.21195 36.1111H29.9202ZM24.5018 22.2326C25.02 22.2326 25.4544 22.0426 25.8049 21.6626C26.1555 21.2826 26.3308 20.8117 26.3308 20.25C26.3308 19.6882 26.1555 19.2173 25.8049 18.8373C25.4544 18.4573 25.02 18.2673 24.5018 18.2673C23.9836 18.2673 23.5492 18.4573 23.1986 18.8373C22.8481 19.2173 22.6728 19.6882 22.6728 20.25C22.6728 20.8117 22.8481 21.2826 23.1986 21.6626C23.5492 22.0426 23.9836 22.2326 24.5018 22.2326ZM13.5279 22.2326C14.0461 22.2326 14.4805 22.0426 14.831 21.6626C15.1816 21.2826 15.3569 20.8117 15.3569 20.25C15.3569 19.6882 15.1816 19.2173 14.831 18.8373C14.4805 18.4573 14.0461 18.2673 13.5279 18.2673C13.0097 18.2673 12.5753 18.4573 12.2247 18.8373C11.8742 19.2173 11.6989 19.6882 11.6989 20.25C11.6989 20.8117 11.8742 21.2826 12.2247 21.6626C12.5753 22.0426 13.0097 22.2326 13.5279 22.2326ZM29.943 19.1595C30.1564 15.6569 29.1809 12.6499 27.0167 10.1385C24.8524 7.62717 22.1546 6.3715 18.9234 6.3715C16.2104 6.3715 13.8251 7.30499 11.7675 9.17198C9.70989 11.039 8.4677 13.4264 8.04094 16.3343C10.8149 16.3012 13.3679 15.4916 15.6998 13.9055C18.0318 12.3194 19.8226 10.1716 21.0725 7.46195C21.5602 10.1055 22.589 12.4599 24.1589 14.5251C25.7287 16.5904 27.6568 18.1352 29.943 19.1595Z" fill="#4B4BB2"/>
</svg>
