<?xml version="1.0" encoding="UTF-8"?>
<svg id="Layer_2" data-name="Layer 2" xmlns="http://www.w3.org/2000/svg" viewBox="0 0 111.13 137.74">
  <defs>
    <style>
      .cls-1 {
        fill: #004739;
      }

      .cls-1, .cls-2 {
        stroke-width: 0px;
      }

      .cls-2 {
        fill: #02d866;
      }
    </style>
  </defs>
  <g id="Layer_1-2" data-name="Layer 1">
    <g>
      <path class="cls-2" d="M74.59,116.73l-.05.07c-1.56,2.43-7.42,5.77-11.09,8-6.89,3.92-13.82,8.78-21.02,12.05-4.02,1.83-7.97.6-11.92-1.64-3.73-2.04-7.47-4.37-11.24-6.61-4.37-2.64-9.69-5.71-13.46-8.25-1.78-1.23-3.07-2.33-3.94-3.52-2.26-3.17-1.74-7.31-1.86-11.13.04-15.34-.09-21.85.05-35.87.12-4.38.7-6.71,3.43-9.1,5.06-4.06,11.06-7.04,16.63-10.54,3.76-2.24,8.01-4.87,11.54-6.71,1.1-.54,2.1-1,3.1-1.34,0,6.53.04,12.61.02,22.01.13,3.82-.4,7.97,1.85,11.13.87,1.19,2.16,2.28,3.94,3.52,3.76,2.54,9.09,5.61,13.46,8.25,3.77,2.24,7.52,4.57,11.24,6.61,3.69,2.08,7.34,3.29,11.08,1.97v4.96c-.2,4.95.77,12.82-1.76,16.13Z"/>
      <path class="cls-1" d="M76.35,72.84v22.79c-3.74,1.32-7.39.11-11.08-1.97-3.72-2.04-7.47-4.37-11.24-6.61-4.37-2.64-9.69-5.71-13.46-8.25-1.78-1.24-3.07-2.33-3.94-3.52-2.25-3.17-1.73-7.32-1.85-11.13.02-9.4-.02-15.48-.02-22.01,1.49-.5,2.96-.72,4.66-.52,3.22.48,6.2,2.32,9.08,3.95,5.35,3.16,12.75,7.6,17.96,10.73,3.76,2.46,8.56,4.73,9.46,9.43.45,2.23.41,4.71.44,7.1Z"/>
      <path class="cls-2" d="M109.35,75.18l-.05.07c-1.57,2.43-7.42,5.77-11.1,8-6.89,3.93-13.81,8.78-21.01,12.05-.28.13-.56.24-.85.34v-22.79c-.02-2.39,0-4.87-.44-7.1-.9-4.7-5.7-6.96-9.46-9.43-5.21-3.14-12.61-7.57-17.96-10.73-2.88-1.64-5.86-3.47-9.08-3.95-1.7-.2-3.16.02-4.66.52,0-4.13,0-8.43.05-13.87.12-4.38.7-6.71,3.44-9.09,5.06-4.07,11.06-7.05,16.63-10.55,3.76-2.23,8-4.87,11.54-6.7,2.73-1.36,4.93-2.2,7.75-1.85,3.22.48,6.2,2.32,9.08,3.94,5.35,3.16,12.75,7.6,17.96,10.74,3.76,2.46,8.56,4.72,9.46,9.42.45,2.24.41,4.71.44,7.1,0,12.02,0,12.17,0,27.75-.2,4.95.77,12.82-1.76,16.14Z"/>
    </g>
  </g>
</svg>